<svg width="25" height="24" viewBox="0 0 25 24" fill="none" xmlns="http://www.w3.org/2000/svg">
<g clip-path="url(#clip0_4_84)">
<path d="M17.6061 4.5C15.6759 4.5 13.5973 4.9 12.162 6C10.7267 4.9 8.64808 4.5 6.7179 4.5C5.28264 4.5 3.75829 4.72 2.4814 5.29C1.75882 5.62 1.2738 6.33 1.2738 7.14V18.42C1.2738 19.72 2.4814 20.68 3.7286 20.36C4.69864 20.11 5.72807 20 6.7179 20C8.26205 20 9.90517 20.26 11.2316 20.92C11.8255 21.22 12.4985 21.22 13.0825 20.92C14.4089 20.25 16.0521 20 17.5962 20C18.586 20 19.6155 20.11 20.5855 20.36C21.8327 20.69 23.0403 19.73 23.0403 18.42V7.14C23.0403 6.33 22.5553 5.62 21.8327 5.29C20.5657 4.72 19.0414 4.5 17.6061 4.5ZM21.0705 17.23C21.0705 17.86 20.4964 18.32 19.8827 18.21C19.1403 18.07 18.3683 18.01 17.6061 18.01C15.9234 18.01 13.4983 18.66 12.162 19.51V8C13.4983 7.15 15.9234 6.5 17.6061 6.5C18.5167 6.5 19.4175 6.59 20.2787 6.78C20.734 6.88 21.0705 7.29 21.0705 7.76V17.23Z" fill="url(#paint0_linear_4_84)"/>
<path d="M14.1218 11.01C13.8051 11.01 13.518 10.81 13.419 10.49C13.2904 10.1 13.5081 9.66998 13.8942 9.54998C15.4185 9.04998 17.3883 8.88998 19.1997 9.09998C19.6055 9.14998 19.9025 9.51998 19.853 9.92998C19.8035 10.34 19.4372 10.64 19.0314 10.59C17.4279 10.4 15.6759 10.55 14.3495 10.98C14.2703 10.99 14.1911 11.01 14.1218 11.01Z" fill="url(#paint1_linear_4_84)"/>
<path d="M14.1218 13.67C13.8051 13.67 13.518 13.47 13.419 13.15C13.2904 12.76 13.5081 12.33 13.8942 12.21C15.4086 11.71 17.3883 11.55 19.1997 11.76C19.6055 11.81 19.9025 12.18 19.853 12.59C19.8035 13 19.4372 13.3 19.0314 13.25C17.4279 13.06 15.6759 13.21 14.3495 13.64C14.2703 13.66 14.1911 13.67 14.1218 13.67Z" fill="url(#paint2_linear_4_84)"/>
<path d="M14.1218 16.33C13.8051 16.33 13.518 16.13 13.419 15.81C13.2904 15.42 13.5081 14.99 13.8942 14.87C15.4086 14.37 17.3883 14.21 19.1997 14.42C19.6055 14.47 19.9025 14.84 19.853 15.25C19.8035 15.66 19.4372 15.95 19.0314 15.91C17.4279 15.72 15.6759 15.87 14.3495 16.3C14.2703 16.32 14.1911 16.33 14.1218 16.33Z" fill="url(#paint3_linear_4_84)"/>
</g>
<defs>
<linearGradient id="paint0_linear_4_84" x1="12.1571" y1="4.5" x2="12.1571" y2="21.145" gradientUnits="userSpaceOnUse">
<stop stop-color="#1561D2"/>
<stop offset="1" stop-color="#42A5F5"/>
</linearGradient>
<linearGradient id="paint1_linear_4_84" x1="16.6202" y1="9.00989" x2="16.6202" y2="11.01" gradientUnits="userSpaceOnUse">
<stop stop-color="#1561D2"/>
<stop offset="1" stop-color="#42A5F5"/>
</linearGradient>
<linearGradient id="paint2_linear_4_84" x1="16.6202" y1="11.6699" x2="16.6202" y2="13.67" gradientUnits="userSpaceOnUse">
<stop stop-color="#1561D2"/>
<stop offset="1" stop-color="#42A5F5"/>
</linearGradient>
<linearGradient id="paint3_linear_4_84" x1="16.6202" y1="14.33" x2="16.6202" y2="16.33" gradientUnits="userSpaceOnUse">
<stop stop-color="#1561D2"/>
<stop offset="1" stop-color="#42A5F5"/>
</linearGradient>
<clipPath id="clip0_4_84">
<rect width="23.7561" height="24" fill="white" transform="translate(0.283936)"/>
</clipPath>
</defs>
</svg>
