<svg width="25" height="24" viewBox="0 0 25 24" fill="none" xmlns="http://www.w3.org/2000/svg">
<g clip-path="url(#clip0_4_99)">
<path d="M12.8054 15.67C12.944 15.31 12.8549 14.9 12.5777 14.62L10.509 12.56L10.5387 12.53C12.261 10.59 13.4884 8.36 14.211 6H16.1312C16.6658 6 17.1112 5.55 17.1112 5.01V4.99C17.1112 4.45 16.6658 4 16.1312 4H10.1823V3C10.1823 2.45 9.7369 2 9.19249 2C8.64808 2 8.20266 2.45 8.20266 3V4H2.25374C1.71923 4 1.2738 4.45 1.2738 4.99C1.2738 5.54 1.71923 5.98 2.25374 5.98H12.3303C11.6671 7.92 10.6179 9.75 9.19249 11.35C8.39072 10.46 7.71764 9.49 7.15343 8.47C6.99506 8.18 6.708 8 6.38136 8C5.69837 8 5.26284 8.75 5.59939 9.35C6.22298 10.48 6.98516 11.56 7.87601 12.56L3.55043 16.87C3.15449 17.26 3.15449 17.9 3.55043 18.29C3.93646 18.68 4.56006 18.68 4.95599 18.29L9.19249 14L11.192 16.02C11.6968 16.53 12.5579 16.34 12.8054 15.67ZM17.6061 10C17.0122 10 16.4777 10.37 16.2698 10.94L12.6371 20.74C12.3996 21.35 12.8549 22 13.4983 22C13.8843 22 14.2308 21.76 14.3693 21.39L15.2503 19H19.952L20.8429 21.39C20.9814 21.75 21.3279 22 21.7139 22C22.3573 22 22.8126 21.35 22.585 20.74L18.9523 10.94C18.7345 10.37 18.2 10 17.6061 10ZM16.0026 17L17.6061 12.67L19.2096 17H16.0026Z" fill="url(#paint0_linear_4_99)"/>
</g>
<defs>
<linearGradient id="paint0_linear_4_99" x1="11.9591" y1="2" x2="11.9591" y2="22" gradientUnits="userSpaceOnUse">
<stop stop-color="#1561D2"/>
<stop offset="1" stop-color="#42A5F5"/>
</linearGradient>
<clipPath id="clip0_4_99">
<rect width="23.7561" height="24" fill="white" transform="translate(0.283936)"/>
</clipPath>
</defs>
</svg>
