<svg width="36" height="35" viewBox="0 0 36 35" fill="none" xmlns="http://www.w3.org/2000/svg">
<path d="M17.8853 17.5C18.6915 17.5 19.3817 17.2144 19.9558 16.6432C20.5299 16.072 20.8169 15.3854 20.8169 14.5833C20.8169 13.7812 20.5299 13.0946 19.9558 12.5234C19.3817 11.9522 18.6915 11.6667 17.8853 11.6667C17.0791 11.6667 16.389 11.9522 15.8149 12.5234C15.2407 13.0946 14.9537 13.7812 14.9537 14.5833C14.9537 15.3854 15.2407 16.072 15.8149 16.6432C16.389 17.2144 17.0791 17.5 17.8853 17.5ZM17.8853 28.2187C20.8658 25.4965 23.0767 23.0234 24.5181 20.7995C25.9595 18.5755 26.6802 16.6007 26.6802 14.875C26.6802 12.2257 25.8312 10.0564 24.1333 8.36718C22.4354 6.67794 20.3528 5.83332 17.8853 5.83332C15.4179 5.83332 13.3352 6.67794 11.6373 8.36718C9.93939 10.0564 9.09044 12.2257 9.09044 14.875C9.09044 16.6007 9.81113 18.5755 11.2525 20.7995C12.6939 23.0234 14.9048 25.4965 17.8853 28.2187ZM17.8853 32.0833C13.9521 28.7535 11.0143 25.6606 9.07212 22.8047C7.12991 19.9488 6.15881 17.3055 6.15881 14.875C6.15881 11.2292 7.33757 8.32464 9.69509 6.16145C12.0526 3.99825 14.7827 2.91666 17.8853 2.91666C20.988 2.91666 23.718 3.99825 26.0755 6.16145C28.4331 8.32464 29.6118 11.2292 29.6118 14.875C29.6118 17.3055 28.6407 19.9488 26.6985 22.8047C24.7563 25.6606 21.8186 28.7535 17.8853 32.0833Z" fill="#DB0D0D"/>
</svg>
