<svg width="231" height="34" viewBox="0 0 231 34" fill="none" xmlns="http://www.w3.org/2000/svg">
<path d="M21.56 5.28L20.92 10.32H14.08V33H7.51999V10.32H0.359985V5.28H21.56Z" fill="#2D2D2E"/>
<path d="M36.5215 11.08C38.3615 11.08 39.8015 11.64 40.8415 12.76C41.8815 13.88 42.4016 15.4533 42.4016 17.48V33H36.0815V18.56C36.0815 17.4933 35.9082 16.76 35.5615 16.36C35.2149 15.9333 34.7215 15.72 34.0815 15.72C32.8015 15.72 31.5749 16.6267 30.4015 18.44V33H24.0815V3.32L30.4015 2.68V14.04C31.2815 13.0533 32.2149 12.32 33.2015 11.84C34.1882 11.3333 35.2949 11.08 36.5215 11.08Z" fill="#2D2D2E"/>
<path d="M64.0475 26.84C64.0475 27.64 64.1542 28.2267 64.3675 28.6C64.6075 28.9733 64.9808 29.2533 65.4875 29.44L64.1675 33.56C62.8608 33.4533 61.7942 33.1733 60.9675 32.72C60.1408 32.24 59.5008 31.4933 59.0475 30.48C57.6608 32.6133 55.5275 33.68 52.6475 33.68C50.5408 33.68 48.8608 33.0667 47.6075 31.84C46.3542 30.6133 45.7275 29.0133 45.7275 27.04C45.7275 24.72 46.5808 22.9467 48.2875 21.72C49.9942 20.4933 52.4608 19.88 55.6875 19.88H57.8475V18.96C57.8475 17.7067 57.5808 16.8533 57.0475 16.4C56.5142 15.92 55.5808 15.68 54.2475 15.68C53.5542 15.68 52.7142 15.7867 51.7275 16C50.7408 16.1867 49.7275 16.4533 48.6875 16.8L47.2475 12.64C48.5808 12.1333 49.9408 11.7467 51.3275 11.48C52.7408 11.2133 54.0475 11.08 55.2475 11.08C58.2875 11.08 60.5142 11.7067 61.9275 12.96C63.3408 14.2133 64.0475 16.0933 64.0475 18.6V26.84ZM54.4875 29.16C55.9275 29.16 57.0475 28.48 57.8475 27.12V23.36H56.2875C54.8475 23.36 53.7675 23.6133 53.0475 24.12C52.3542 24.6267 52.0075 25.4133 52.0075 26.48C52.0075 27.3333 52.2208 28 52.6475 28.48C53.1008 28.9333 53.7141 29.16 54.4875 29.16Z" fill="#2D2D2E"/>
<path d="M74.3309 33.68C72.4909 33.68 71.0509 33.16 70.0109 32.12C68.9976 31.0533 68.4909 29.5467 68.4909 27.6V3.32L74.8109 2.64V27.36C74.8109 28.24 75.1709 28.68 75.8909 28.68C76.2643 28.68 76.6109 28.6133 76.9309 28.48L78.1709 32.96C77.0243 33.44 75.7443 33.68 74.3309 33.68Z" fill="#2D2D2E"/>
<path d="M86.2059 33.68C84.3659 33.68 82.9259 33.16 81.8859 32.12C80.8726 31.0533 80.3659 29.5467 80.3659 27.6V3.32L86.6859 2.64V27.36C86.6859 28.24 87.0459 28.68 87.7659 28.68C88.1393 28.68 88.4859 28.6133 88.8059 28.48L90.0459 32.96C88.8993 33.44 87.6193 33.68 86.2059 33.68Z" fill="#2D2D2E"/>
<path d="M98.7609 11.76V33H92.4409V11.76H98.7609ZM95.5609 0.559998C96.6543 0.559998 97.5476 0.906665 98.2409 1.6C98.9609 2.26666 99.3209 3.12 99.3209 4.16C99.3209 5.2 98.9609 6.06666 98.2409 6.76C97.5476 7.42666 96.6543 7.76 95.5609 7.76C94.4676 7.76 93.5743 7.42666 92.8809 6.76C92.1876 6.06666 91.8409 5.2 91.8409 4.16C91.8409 3.12 92.1876 2.26666 92.8809 1.6C93.5743 0.906665 94.4676 0.559998 95.5609 0.559998Z" fill="#2D2D2E"/>
<path d="M111.21 11.08C112.73 11.08 114.157 11.3067 115.49 11.76C116.823 12.2133 117.997 12.8533 119.01 13.68L116.69 17.24C114.957 16.1467 113.21 15.6 111.45 15.6C110.623 15.6 109.983 15.7467 109.53 16.04C109.103 16.3067 108.89 16.6933 108.89 17.2C108.89 17.6 108.983 17.9333 109.17 18.2C109.383 18.44 109.797 18.6933 110.41 18.96C111.023 19.2267 111.97 19.5467 113.25 19.92C115.463 20.56 117.103 21.4 118.17 22.44C119.263 23.4533 119.81 24.8667 119.81 26.68C119.81 28.12 119.397 29.3733 118.57 30.44C117.743 31.48 116.61 32.28 115.17 32.84C113.73 33.4 112.13 33.68 110.37 33.68C108.583 33.68 106.917 33.4 105.37 32.84C103.85 32.28 102.557 31.5067 101.49 30.52L104.57 27.08C106.357 28.4667 108.237 29.16 110.21 29.16C111.17 29.16 111.917 28.9867 112.45 28.64C113.01 28.2933 113.29 27.8 113.29 27.16C113.29 26.6533 113.183 26.2533 112.97 25.96C112.757 25.6667 112.343 25.4 111.73 25.16C111.117 24.8933 110.143 24.5733 108.81 24.2C106.703 23.5867 105.13 22.7333 104.09 21.64C103.05 20.5467 102.53 19.1867 102.53 17.56C102.53 16.3333 102.877 15.24 103.57 14.28C104.29 13.2933 105.303 12.52 106.61 11.96C107.943 11.3733 109.477 11.08 111.21 11.08Z" fill="#2D2D2E"/>
<path d="M150.706 33H144.266L143.786 22.16C143.653 19.5733 143.586 17.2667 143.586 15.24C143.586 13.6933 143.626 12.2267 143.706 10.84L139.426 30.08H133.226L128.666 10.84C128.826 13.16 128.906 15.3467 128.906 17.4C128.906 18.9467 128.866 20.56 128.786 22.24L128.306 33H121.906L123.986 5.28H132.266L136.426 24.08L140.306 5.28H148.626L150.706 33Z" fill="url(#paint0_linear_16_2)"/>
<path d="M171.391 26.84C171.391 27.64 171.498 28.2267 171.711 28.6C171.951 28.9733 172.325 29.2533 172.831 29.44L171.511 33.56C170.205 33.4533 169.138 33.1733 168.311 32.72C167.485 32.24 166.845 31.4933 166.391 30.48C165.005 32.6133 162.871 33.68 159.991 33.68C157.885 33.68 156.205 33.0667 154.951 31.84C153.698 30.6133 153.071 29.0133 153.071 27.04C153.071 24.72 153.925 22.9467 155.631 21.72C157.338 20.4933 159.805 19.88 163.031 19.88H165.191V18.96C165.191 17.7067 164.925 16.8533 164.391 16.4C163.858 15.92 162.925 15.68 161.591 15.68C160.898 15.68 160.058 15.7867 159.071 16C158.085 16.1867 157.071 16.4533 156.031 16.8L154.591 12.64C155.925 12.1333 157.285 11.7467 158.671 11.48C160.085 11.2133 161.391 11.08 162.591 11.08C165.631 11.08 167.858 11.7067 169.271 12.96C170.685 14.2133 171.391 16.0933 171.391 18.6V26.84ZM161.831 29.16C163.271 29.16 164.391 28.48 165.191 27.12V23.36H163.631C162.191 23.36 161.111 23.6133 160.391 24.12C159.698 24.6267 159.351 25.4133 159.351 26.48C159.351 27.3333 159.565 28 159.991 28.48C160.445 28.9333 161.058 29.16 161.831 29.16Z" fill="url(#paint1_linear_16_2)"/>
<path d="M189.745 32C188.972 32.5333 188.065 32.9467 187.025 33.24C186.012 33.5333 184.999 33.68 183.985 33.68C179.345 33.6533 177.025 31.0933 177.025 26V16.16H174.025V11.76H177.025V7.16L183.345 6.44V11.76H188.225L187.545 16.16H183.345V25.92C183.345 26.9067 183.505 27.6133 183.825 28.04C184.145 28.4667 184.652 28.68 185.345 28.68C186.065 28.68 186.825 28.4533 187.625 28L189.745 32Z" fill="url(#paint2_linear_16_2)"/>
<path d="M200.352 11.08C203.605 11.08 206.152 12.08 207.992 14.08C209.832 16.0533 210.752 18.8267 210.752 22.4C210.752 24.6667 210.325 26.6533 209.472 28.36C208.645 30.04 207.445 31.3467 205.872 32.28C204.325 33.2133 202.485 33.68 200.352 33.68C197.125 33.68 194.579 32.6933 192.712 30.72C190.872 28.72 189.952 25.9333 189.952 22.36C189.952 20.0933 190.365 18.12 191.192 16.44C192.045 14.7333 193.245 13.4133 194.792 12.48C196.365 11.5467 198.219 11.08 200.352 11.08ZM200.352 15.72C199.072 15.72 198.112 16.2667 197.472 17.36C196.832 18.4267 196.512 20.0933 196.512 22.36C196.512 24.68 196.819 26.3733 197.432 27.44C198.072 28.5067 199.045 29.04 200.352 29.04C201.632 29.04 202.592 28.5067 203.232 27.44C203.872 26.3467 204.192 24.6667 204.192 22.4C204.192 20.08 203.872 18.3867 203.232 17.32C202.619 16.2533 201.659 15.72 200.352 15.72Z" fill="url(#paint3_linear_16_2)"/>
<path d="M221.991 11.08C223.511 11.08 224.938 11.3067 226.271 11.76C227.605 12.2133 228.778 12.8533 229.791 13.68L227.471 17.24C225.738 16.1467 223.991 15.6 222.231 15.6C221.405 15.6 220.765 15.7467 220.311 16.04C219.885 16.3067 219.671 16.6933 219.671 17.2C219.671 17.6 219.765 17.9333 219.951 18.2C220.165 18.44 220.578 18.6933 221.191 18.96C221.805 19.2267 222.751 19.5467 224.031 19.92C226.245 20.56 227.885 21.4 228.951 22.44C230.045 23.4533 230.591 24.8667 230.591 26.68C230.591 28.12 230.178 29.3733 229.351 30.44C228.525 31.48 227.391 32.28 225.951 32.84C224.511 33.4 222.911 33.68 221.151 33.68C219.365 33.68 217.698 33.4 216.151 32.84C214.631 32.28 213.338 31.5067 212.271 30.52L215.351 27.08C217.138 28.4667 219.018 29.16 220.991 29.16C221.951 29.16 222.698 28.9867 223.231 28.64C223.791 28.2933 224.071 27.8 224.071 27.16C224.071 26.6533 223.965 26.2533 223.751 25.96C223.538 25.6667 223.125 25.4 222.511 25.16C221.898 24.8933 220.925 24.5733 219.591 24.2C217.485 23.5867 215.911 22.7333 214.871 21.64C213.831 20.5467 213.311 19.1867 213.311 17.56C213.311 16.3333 213.658 15.24 214.351 14.28C215.071 13.2933 216.085 12.52 217.391 11.96C218.725 11.3733 220.258 11.08 221.991 11.08Z" fill="url(#paint4_linear_16_2)"/>
<defs>
<linearGradient id="paint0_linear_16_2" x1="0.359985" y1="17.12" x2="230.591" y2="17.12" gradientUnits="userSpaceOnUse">
<stop offset="0.4" stop-color="#1561D2"/>
<stop offset="1" stop-color="#42A5F5"/>
</linearGradient>
<linearGradient id="paint1_linear_16_2" x1="0.359985" y1="17.12" x2="230.591" y2="17.12" gradientUnits="userSpaceOnUse">
<stop offset="0.4" stop-color="#1561D2"/>
<stop offset="1" stop-color="#42A5F5"/>
</linearGradient>
<linearGradient id="paint2_linear_16_2" x1="0.359985" y1="17.12" x2="230.591" y2="17.12" gradientUnits="userSpaceOnUse">
<stop offset="0.4" stop-color="#1561D2"/>
<stop offset="1" stop-color="#42A5F5"/>
</linearGradient>
<linearGradient id="paint3_linear_16_2" x1="0.359985" y1="17.12" x2="230.591" y2="17.12" gradientUnits="userSpaceOnUse">
<stop offset="0.4" stop-color="#1561D2"/>
<stop offset="1" stop-color="#42A5F5"/>
</linearGradient>
<linearGradient id="paint4_linear_16_2" x1="0.359985" y1="17.12" x2="230.591" y2="17.12" gradientUnits="userSpaceOnUse">
<stop offset="0.4" stop-color="#1561D2"/>
<stop offset="1" stop-color="#42A5F5"/>
</linearGradient>
</defs>
</svg>
